<svg width="645" height="647" viewBox="0 0 645 647" fill="none" xmlns="http://www.w3.org/2000/svg">
<path d="M531.691 310.425C515.762 310.425 502.729 300.048 502.729 287.37C502.729 274.691 511.443 264.314 522.109 264.314C532.762 264.314 541.488 253.862 541.488 241.095C541.488 228.329 528.455 217.876 512.526 217.876H415.24C399.311 217.876 386.278 207.424 386.278 194.657C386.278 181.89 373.245 171.438 357.316 171.438H323.116C307.187 171.438 294.154 160.986 294.154 148.219C294.154 135.452 281.121 125 265.192 125H138.592C122.663 125 109.63 135.452 109.63 148.219C109.63 160.986 96.597 171.438 80.668 171.438H31.9618C16.0328 171.438 3 181.89 3 194.657C3 207.424 16.0328 217.876 31.9618 217.876H88.5254C104.454 217.876 117.487 228.266 117.487 240.969C117.487 253.673 104.606 264.063 88.8654 264.063C73.1253 264.063 60.2436 274.49 60.2436 287.244C60.2436 299.998 47.3619 310.425 31.6218 310.425C15.8817 310.425 3 320.878 3 333.644C3 346.411 16.0328 356.863 31.9618 356.863H574.769C590.698 356.863 603.731 346.411 603.731 333.644C603.731 320.878 590.698 310.425 574.769 310.425H531.691ZM198.631 194.003C198.681 205.223 185.686 214.405 169.757 214.405H161.245C145.316 214.405 132.283 205.135 132.283 193.814C132.283 182.494 145.316 173.3 161.245 173.388L169.581 173.438C185.51 173.526 198.58 182.783 198.631 194.003Z" fill="#E8F1FF"/>
<path d="M89.458 505.405C75.0668 505.405 63.2922 516.298 63.2922 529.612V531.538C63.2922 544.852 51.5176 555.745 37.1263 555.745H26.9574C12.5661 555.745 0.791504 566.638 0.791504 579.952V581.877C0.791504 595.191 12.5661 606.085 26.9574 606.085H348.678C363.07 606.085 374.844 595.191 374.844 581.877V579.952C374.844 566.638 386.619 555.745 401.01 555.745H491.948C506.34 555.745 518.114 544.852 518.114 531.538V529.612C518.114 516.298 529.889 505.405 544.28 505.405H593.46C607.851 505.405 619.626 494.512 619.626 481.198V479.272C619.626 465.958 607.851 455.065 593.46 455.065H568.448C554.057 455.065 542.282 444.172 542.282 430.858V429.207C542.282 415.893 530.507 405 516.116 405H60.8778C46.4866 405 34.7119 415.893 34.7119 429.207V431.133C34.7119 444.447 46.4866 455.34 60.8778 455.34H101.685C116.076 455.34 127.851 466.233 127.851 479.547V481.198C127.851 494.512 116.076 505.405 101.685 505.405H89.458Z" fill="#E8F1FF"/>
<path d="M454.114 18.5959C454.114 15.4247 451.594 12.8247 448.525 12.8247C445.445 12.8247 442.935 9.93335 442.935 6.41238C442.935 2.87974 440.669 0 437.904 0C435.14 0 432.874 2.8914 432.874 6.41238C432.874 9.94501 430.353 12.8247 427.284 12.8247C424.205 12.8247 421.694 15.4247 421.694 18.5959C421.694 21.7671 424.215 24.367 427.284 24.367C430.363 24.367 432.874 27.2584 432.874 30.7794C432.874 34.312 435.14 37.1917 437.904 37.1917C440.669 37.1917 442.935 34.3003 442.935 30.7794C442.935 27.2467 445.455 24.367 448.525 24.367C451.594 24.367 454.114 21.7671 454.114 18.5959Z" fill="#E8F1FF"/>
<path d="M30.2776 457.18C30.2776 454.592 28.2247 452.47 25.7144 452.47C23.2042 452.47 21.1512 450.115 21.1512 447.235C21.1512 444.355 19.3016 442 17.0454 442C14.7892 442 12.9396 444.355 12.9396 447.235C12.9396 450.115 10.8867 452.47 8.37641 452.47C5.86616 452.47 3.81323 454.592 3.81323 457.18C3.81323 459.768 5.86616 461.89 8.37641 461.89C10.8867 461.89 12.9396 464.245 12.9396 467.125C12.9396 470.005 14.7892 472.36 17.0454 472.36C19.3016 472.36 21.1512 470.005 21.1512 467.125C21.1512 464.245 23.2042 461.89 25.7144 461.89C28.2247 461.89 30.2776 459.768 30.2776 457.18Z" fill="#E8F1FF"/>
<path d="M129.055 37.0982C131.291 37.4596 133.404 35.431 133.76 32.5746C134.116 29.7298 136.433 27.7245 138.923 28.1326C141.403 28.5406 143.699 26.7685 144.015 24.2035C144.33 21.6386 142.561 19.2135 140.071 18.8055C137.592 18.3974 135.844 15.7392 136.199 12.8828C136.555 10.038 135.01 7.40312 132.774 7.04169C130.538 6.68027 128.425 8.70891 128.069 11.5653C127.713 14.4101 125.396 16.4154 122.906 16.0073C120.426 15.5993 118.129 17.3714 117.814 19.9364C117.499 22.5013 119.268 24.9264 121.758 25.3344C124.237 25.7425 125.985 28.4007 125.63 31.2571C125.284 34.1019 126.819 36.7368 129.055 37.0982Z" fill="#E8F1FF"/>
<path d="M643.753 412.496C644.932 410.281 644.139 407.25 641.995 405.746C639.85 404.242 639.169 401.012 640.47 398.552C641.781 396.092 641.273 392.979 639.342 391.627C637.411 390.275 634.769 391.184 633.458 393.644C632.147 396.104 629.332 396.885 627.187 395.393C625.043 393.889 622.329 394.472 621.15 396.687C619.971 398.902 620.764 401.933 622.909 403.437C625.053 404.941 625.734 408.171 624.433 410.631C623.122 413.091 623.63 416.204 625.561 417.556C627.492 418.909 630.134 417.999 631.445 415.539C632.756 413.079 635.572 412.298 637.716 413.79C639.86 415.283 642.574 414.711 643.753 412.496Z" fill="#E8F1FF"/>
<path d="M237.548 640C237.548 643.864 234.828 647 231.477 647C228.126 647 225.406 643.864 225.406 640C225.406 636.136 228.126 633 231.477 633C234.828 633 237.548 636.136 237.548 640Z" fill="#E8F1FF"/>
<path d="M131.818 415.281C139.362 415.281 145.477 408.118 145.477 399.281C145.477 390.445 139.362 383.281 131.818 383.281C124.274 383.281 118.159 390.445 118.159 399.281C118.159 408.118 124.274 415.281 131.818 415.281Z" fill="#E8F1FF"/>
<path fill-rule="evenodd" clip-rule="evenodd" d="M354.916 69.0538C363.087 68.5491 372.44 71.6836 379.562 74.7916C400.553 83.9562 420.657 94.9006 439.794 105.579C446.083 109.086 452.534 113.017 459.307 116.417C472.906 123.218 485.754 128.61 499.353 137.058C506.664 141.6 514.593 147.099 517.496 154.298C522.952 167.898 516.232 184.793 511.341 194.569C505.508 206.177 499.434 217.042 493.871 227.721C482.152 250.22 470.944 270.648 458.608 293.679C446.217 316.843 435.305 338.678 424.393 360.673C416.276 377.01 406.843 393.985 398.027 410.401C393.082 419.592 389.05 428.651 379.186 432.396C377.197 433.14 373.219 433.777 369.618 433.406C361.635 432.609 353.868 427.96 346.692 424.613C339.462 421.239 332.339 417.361 325.808 413.775C299.63 399.43 268.587 385.537 242.624 370.13C230.099 362.719 215.101 353.767 208.732 341.043C201.421 326.379 211.016 305.845 216.956 294.024C222.815 282.31 228.54 272.322 234.399 262.546C240.742 252.027 246.87 241.215 252.541 231.44C264.125 211.517 276.973 189.309 286.756 167.5C291.594 156.742 297.48 144.681 302.855 134.693C310.999 119.525 320.137 102.79 329.893 88.0205C333.253 82.9202 337.043 77.6074 340.859 74.4994C343.923 71.9758 348.466 69.4522 354.916 69.0538Z" fill="#C1D5E8"/>
<path d="M430.118 123.829C430.414 123.909 430.871 123.829 430.871 124.174C435.977 123.192 438.396 117.746 440.6 113.894C441.675 112.035 442.885 110.016 443.852 107.891C442.508 107.12 441.138 106.35 439.794 105.606C439.068 105.208 438.316 104.783 437.59 104.384C436.246 106.377 435.01 108.555 433.854 110.706C431.811 114.585 428.291 119.154 430.118 123.829Z" fill="white"/>
<path d="M417.781 144.762C414.852 149.171 410.659 155.016 408.401 160.036C406.735 163.755 406.493 167.66 409.906 167.846C412.487 167.979 414.798 163.489 415.9 161.816C417.728 159.053 419.609 156.689 420.765 154.723C424.071 149.145 427.484 144.788 427.135 138.041C422.485 134.614 419.851 141.654 417.781 144.762Z" fill="white"/>
<path d="M396.038 185.962C391.281 191.275 385.878 200.121 382.922 207.267C381.981 209.498 380.664 212.659 383.298 214.359C386.55 214.545 388.297 211.437 389.668 209.392C391.307 206.948 392.517 204.292 393.78 201.927C396.441 197.013 400.284 191.7 400.15 185.962C399.371 185.245 396.71 184.767 396.038 185.962Z" fill="white"/>
<path d="M367.951 233.883C365.64 236.327 363.839 240.551 361.205 245.253C359.996 247.378 353.868 255.135 357.469 257.313C359.566 258.588 362.845 255.081 363.839 253.753C365.801 251.15 366.849 248.786 367.951 247.006C370.962 242.225 374.16 238.027 373.945 232.449C371.795 230.829 369.322 232.422 367.951 233.883Z" fill="white"/>
<path d="M346.584 278.618C346.584 279.07 345.939 278.937 345.832 279.335C341.746 282.496 339.301 286.348 336.478 291.767C335.108 294.424 328.63 304.465 332.366 306.324C335.108 307.706 337.419 303.88 338.736 302.047C342.15 297.372 344.568 292.697 346.987 287.862C348.224 285.392 350.401 282.789 349.594 279.681C348.761 279.149 347.982 278.592 346.584 278.618Z" fill="white"/>
<path d="M319.627 326.884C316.966 330.39 314.466 333.87 311.402 339.316C310.193 341.441 303.339 351.615 308.392 352.438C310.865 352.837 312.88 349.383 314.009 347.816C315.595 345.611 317.046 343.114 318.122 341.414C321.132 336.739 324.196 332.542 323.739 326.857C322.959 326.166 320.299 325.688 319.627 326.884Z" fill="white"/>
<path d="M297.533 373.743C296.727 373.026 294.093 372.548 293.394 373.743C290.787 376.559 288.691 379.056 286.272 384.395C285.761 385.485 283.826 388.858 283.02 391.78C284.767 392.657 286.514 393.533 288.288 394.437C290.545 391.913 292.454 387.875 293.018 386.893C295.518 382.536 297.937 378.631 297.533 373.743Z" fill="white"/>
<path opacity="0.38" fill-rule="evenodd" clip-rule="evenodd" d="M360.372 342.026C359.727 344.523 356.636 344.23 354.943 344.709C342.687 348.162 331.21 355.998 330.915 371.91C330.592 388.778 344.73 401.237 361.931 399.484C369.403 398.713 375.047 395.021 378.971 390.664C380.396 389.097 381.551 385.697 385.18 387.211C388.163 392.869 381.686 397.226 377.815 399.855C355.239 415.263 322.287 398.66 325.109 368.829C326.399 355.254 337.715 342.026 351.852 340.485C355.185 340.113 358.437 340.246 360.372 342.026Z" fill="#334F70"/>
<path fill-rule="evenodd" clip-rule="evenodd" d="M356.878 353.129C360.399 352.731 366.392 353.235 369.671 355.042C376.176 358.601 381.847 367.952 379.374 377.249C377.116 385.776 362.63 396.8 349.917 390.664C346.181 388.858 341.477 383.625 340.214 378.79C337.177 367.049 344.514 356.715 351.852 353.9C353.276 353.342 354.97 353.342 356.878 353.129Z" fill="white"/>
<path opacity="0.38" fill-rule="evenodd" clip-rule="evenodd" d="M357.281 355.812C361.259 361.391 363.651 370.29 365.048 378.79C365.452 381.314 366.984 384.661 364.672 386.839C361.393 387.556 360.587 383.97 359.619 381.473C358.759 379.189 357.953 376.267 357.281 373.796C355.856 368.537 353.679 360.78 354.566 356.955C354.566 356.291 354.862 355.945 355.346 355.812C355.991 355.812 356.636 355.812 357.281 355.812Z" fill="#334F70"/>
<path opacity="0.38" fill-rule="evenodd" clip-rule="evenodd" d="M401.333 275.589C400.688 278.086 397.597 277.793 395.904 278.272C383.648 281.725 372.171 289.561 371.876 305.473C371.553 322.341 385.69 334.8 402.892 333.047C410.363 332.303 416.008 328.584 419.932 324.227C421.356 322.66 422.512 319.26 426.14 320.774C429.124 326.432 422.646 330.789 418.776 333.418C396.199 348.826 363.248 332.223 366.07 302.392C367.36 288.818 378.675 275.589 392.813 274.048C396.145 273.676 399.398 273.835 401.333 275.589Z" fill="#334F70"/>
<path fill-rule="evenodd" clip-rule="evenodd" d="M397.866 286.693C401.387 286.295 407.38 286.826 410.659 288.606C417.136 292.165 422.808 301.516 420.335 310.813C418.077 319.34 403.59 330.364 390.878 324.228C387.169 322.422 382.438 317.188 381.202 312.354C378.138 300.586 385.502 290.279 392.84 287.463C394.237 286.906 395.931 286.905 397.866 286.693Z" fill="white"/>
<path opacity="0.38" fill-rule="evenodd" clip-rule="evenodd" d="M398.242 289.376C402.22 294.954 404.612 303.853 405.982 312.354C406.386 314.877 407.891 318.224 405.606 320.403C402.327 321.12 401.521 317.534 400.553 315.037C399.693 312.779 398.887 309.83 398.215 307.386C396.791 302.127 394.614 294.37 395.5 290.545C395.5 289.881 395.796 289.535 396.28 289.376C396.952 289.376 397.597 289.376 398.242 289.376Z" fill="#334F70"/>
<path opacity="0.38" fill-rule="evenodd" clip-rule="evenodd" d="M436.112 209.843C435.466 212.367 432.376 212.048 430.682 212.526C418.426 215.98 406.95 223.816 406.654 239.728C406.332 256.596 420.469 269.054 437.67 267.301C445.142 266.557 450.786 262.838 454.737 258.482C456.162 256.941 457.318 253.541 460.946 255.029C463.929 260.687 457.452 265.043 453.582 267.673C431.005 283.08 398.054 266.478 400.876 236.646C402.166 223.072 413.481 209.87 427.618 208.303C430.924 207.957 434.176 208.09 436.112 209.843Z" fill="#334F70"/>
<path fill-rule="evenodd" clip-rule="evenodd" d="M432.645 220.974C436.165 220.575 442.159 221.107 445.438 222.886C451.942 226.446 457.613 235.796 455.114 245.094C452.856 253.621 438.369 264.645 425.656 258.482C421.947 256.676 417.217 251.469 415.954 246.608C412.917 234.84 420.254 224.533 427.592 221.717C429.016 221.186 430.709 221.186 432.645 220.974Z" fill="white"/>
<path opacity="0.38" fill-rule="evenodd" clip-rule="evenodd" d="M433.021 223.629C436.998 229.208 439.364 238.107 440.761 246.634C441.164 249.157 442.696 252.504 440.358 254.683C437.079 255.4 436.273 251.814 435.332 249.317C434.472 247.059 433.666 244.11 433.021 241.666C431.596 236.407 429.419 228.65 430.306 224.798C430.306 224.134 430.602 223.815 431.085 223.656C431.731 223.629 432.376 223.629 433.021 223.629Z" fill="#334F70"/>
<path opacity="0.38" fill-rule="evenodd" clip-rule="evenodd" d="M473.014 138.811C472.369 141.334 469.278 141.015 467.585 141.494C455.329 144.947 443.852 152.783 443.557 168.695C443.234 185.59 457.372 198.022 474.573 196.268C482.045 195.525 487.689 191.806 491.613 187.449C493.037 185.882 494.193 182.482 497.822 183.996C500.805 189.654 494.328 194.011 490.457 196.64C467.881 212.021 434.929 195.445 437.751 165.614C439.041 152.039 450.384 138.837 464.494 137.27C467.827 136.925 471.079 137.057 473.014 138.811Z" fill="#334F70"/>
<path fill-rule="evenodd" clip-rule="evenodd" d="M469.547 149.914C473.068 149.516 479.061 150.021 482.34 151.827C488.845 155.387 494.516 164.737 492.043 174.035C489.785 182.562 475.299 193.586 462.586 187.449C458.877 185.643 454.146 180.41 452.91 175.575C449.873 163.807 457.21 153.501 464.548 150.685C465.945 150.127 467.612 150.127 469.547 149.914Z" fill="white"/>
<path opacity="0.38" fill-rule="evenodd" clip-rule="evenodd" d="M469.923 152.598C473.901 158.176 476.293 167.075 477.69 175.575C478.094 178.099 479.626 181.446 477.287 183.624C474.008 184.342 473.202 180.755 472.261 178.258C471.401 175.974 470.595 173.052 469.923 170.608C468.499 165.348 466.322 157.592 467.208 153.74C467.208 153.076 467.504 152.757 467.988 152.598C468.633 152.598 469.278 152.598 469.923 152.598Z" fill="#334F70"/>
<path opacity="0.38" fill-rule="evenodd" clip-rule="evenodd" d="M263.776 291.448C263.131 293.945 260.04 293.652 258.347 294.131C246.091 297.584 234.614 305.42 234.319 321.332C233.996 338.2 248.134 350.659 265.335 348.905C272.807 348.162 278.451 344.443 282.402 340.086C283.826 338.519 284.982 335.145 288.61 336.633C291.594 342.291 285.116 346.648 281.246 349.277C258.669 364.685 225.718 348.082 228.54 318.251C229.83 304.676 241.146 291.474 255.283 289.907C258.589 289.535 261.841 289.668 263.776 291.448Z" fill="#334F70"/>
<path fill-rule="evenodd" clip-rule="evenodd" d="M260.309 302.551C263.83 302.153 269.823 302.684 273.102 304.464C279.607 308.024 285.251 317.374 282.805 326.671C280.547 335.199 266.06 346.223 253.348 340.086C249.639 338.28 244.908 333.047 243.645 328.212C240.608 316.444 247.945 306.137 255.283 303.322C256.68 302.764 258.374 302.764 260.309 302.551Z" fill="white"/>
<path opacity="0.38" fill-rule="evenodd" clip-rule="evenodd" d="M260.685 305.234C264.663 310.813 267.055 319.712 268.452 328.212C268.856 330.736 270.388 334.083 268.076 336.261C264.797 336.978 263.964 333.392 263.023 330.895C262.163 328.637 261.357 325.689 260.685 323.245C259.261 317.985 257.084 310.228 257.97 306.403C257.944 305.739 258.266 305.42 258.75 305.261C259.395 305.234 260.04 305.234 260.685 305.234Z" fill="#334F70"/>
<path opacity="0.38" fill-rule="evenodd" clip-rule="evenodd" d="M304.737 225.011C304.092 227.508 301.001 227.216 299.307 227.694C287.052 231.147 275.575 238.983 275.279 254.895C274.957 271.763 289.094 284.222 306.296 282.469C313.767 281.725 319.412 278.006 323.363 273.649C324.787 272.082 325.943 268.682 329.544 270.196C332.528 275.854 326.05 280.211 322.18 282.841C299.603 298.221 266.652 281.645 269.474 251.814C270.764 238.24 282.079 225.037 296.217 223.47C299.549 223.125 302.801 223.258 304.737 225.011Z" fill="#334F70"/>
<path fill-rule="evenodd" clip-rule="evenodd" d="M301.243 236.115C304.764 235.716 310.757 236.221 314.036 238.027C320.514 241.587 326.211 250.937 323.712 260.235C321.454 268.762 306.967 279.812 294.255 273.65C290.546 271.843 285.815 266.61 284.579 261.775C281.515 250.034 288.879 239.701 296.217 236.885C297.641 236.327 299.334 236.327 301.243 236.115Z" fill="white"/>
<path opacity="0.38" fill-rule="evenodd" clip-rule="evenodd" d="M301.646 238.797C305.624 244.376 308.016 253.275 309.413 261.775C309.816 264.299 311.321 267.646 309.01 269.824C305.731 270.541 304.925 266.955 303.984 264.458C303.124 262.2 302.318 259.252 301.646 256.808C300.221 251.548 298.044 243.791 298.931 239.966C298.904 239.302 299.227 238.983 299.711 238.824C300.356 238.797 301.001 238.797 301.646 238.797Z" fill="#334F70"/>
<path opacity="0.38" fill-rule="evenodd" clip-rule="evenodd" d="M339.515 159.265C338.87 161.762 335.78 161.47 334.086 161.948C321.83 165.428 310.354 173.238 310.058 189.15C309.736 206.018 323.873 218.476 341.074 216.723C348.546 215.953 354.19 212.26 358.141 207.904C359.566 206.337 360.721 202.936 364.35 204.451C367.333 210.109 360.856 214.465 356.985 217.095C334.409 232.502 301.458 215.9 304.28 186.068C305.57 172.494 316.885 159.292 331.022 157.724C334.328 157.379 337.58 157.512 339.515 159.265Z" fill="#334F70"/>
<path fill-rule="evenodd" clip-rule="evenodd" d="M336.048 170.395C339.569 169.997 345.563 170.502 348.842 172.308C355.346 175.868 361.017 185.218 358.544 194.542C356.287 203.069 341.8 214.093 329.087 207.957C325.378 206.151 320.648 200.917 319.411 196.083C316.374 184.315 323.712 174.008 331.049 171.192C332.42 170.581 334.113 170.581 336.048 170.395Z" fill="white"/>
<path opacity="0.38" fill-rule="evenodd" clip-rule="evenodd" d="M336.424 173.052C340.402 178.63 342.767 187.529 344.192 196.03C344.595 198.553 346.127 201.9 343.816 204.079C340.537 204.796 339.703 201.21 338.79 198.713C337.929 196.455 337.123 193.506 336.451 191.062C335.027 185.802 332.85 178.046 333.737 174.221C333.71 173.556 334.032 173.211 334.516 173.052C335.134 173.052 335.779 173.052 336.424 173.052Z" fill="#334F70"/>
<path opacity="0.38" fill-rule="evenodd" clip-rule="evenodd" d="M376.418 88.2324C375.773 90.756 372.682 90.4373 370.989 90.9154C358.76 94.3687 347.256 102.205 346.961 118.117C346.638 134.985 360.749 147.444 377.95 145.69C385.422 144.947 391.066 141.228 395.017 136.871C396.441 135.304 397.597 131.904 401.226 133.418C404.209 139.076 397.731 143.432 393.861 146.062C371.284 161.469 338.333 144.867 341.155 115.036C342.445 101.461 353.761 88.259 367.898 86.6917C371.231 86.3464 374.483 86.4792 376.418 88.2324Z" fill="#334F70"/>
<path fill-rule="evenodd" clip-rule="evenodd" d="M372.951 99.3368C376.472 98.9384 382.465 99.4431 385.744 101.249C392.249 104.809 397.893 114.16 395.447 123.457C393.163 131.984 378.703 143.008 365.99 136.872C362.254 135.065 357.55 129.832 356.287 124.998C353.25 113.256 360.587 102.95 367.925 100.107C369.349 99.5493 371.016 99.5493 372.951 99.3368Z" fill="white"/>
<path opacity="0.38" fill-rule="evenodd" clip-rule="evenodd" d="M373.327 102.02C377.305 107.598 379.67 116.497 381.068 124.998C381.471 127.521 382.976 130.869 380.692 133.047C377.413 133.764 376.579 130.178 375.639 127.681C374.779 125.423 373.972 122.474 373.3 120.03C371.876 114.771 369.699 107.014 370.586 103.162C370.559 102.498 370.881 102.179 371.365 102.02C372.037 102.02 372.682 102.02 373.327 102.02Z" fill="#334F70"/>
<path fill-rule="evenodd" clip-rule="evenodd" d="M13.7654 297.876L24.6775 311.504C30.0529 318.224 45.5609 314.957 59.2951 304.199C73.0292 293.467 79.8291 279.308 74.4537 272.587L63.5417 258.96L13.7654 297.876Z" fill="#E8BD54"/>
<path opacity="0.14" fill-rule="evenodd" clip-rule="evenodd" d="M13.7654 297.876L24.6775 311.504C30.0529 318.224 45.5609 314.957 59.2951 304.199C73.0292 293.467 79.8291 279.308 74.4537 272.587L63.5417 258.96L13.7654 297.876Z" fill="#334F70"/>
<path fill-rule="evenodd" clip-rule="evenodd" d="M63.5416 258.96C68.917 265.681 62.144 279.84 48.3829 290.571C34.6488 301.33 19.1408 304.597 13.7654 297.877C8.38997 291.156 15.163 276.997 28.924 266.265C42.6581 255.507 58.1662 252.24 63.5416 258.96Z" fill="#E8BD54"/>
<path d="M59.7787 256.303C58.4886 255.825 57.0373 255.559 55.4247 255.48C52.6294 258.003 49.3504 261.51 46.1789 264.883C40.8035 270.568 34.6218 277.236 29.6764 282.92C24.9729 288.313 18.4149 295.299 15.9153 299.762C16.8829 300.346 18.0117 300.771 19.2481 301.037C28.8432 293.307 42.4161 277.368 53.0863 264.458C55.129 262.014 58.0049 258.986 59.7787 256.303Z" fill="white"/>
<path fill-rule="evenodd" clip-rule="evenodd" d="M196.341 214.12L197.443 231.466C197.981 240.02 212.602 246.05 230.099 244.987C247.596 243.898 261.33 236.115 260.793 227.561L259.691 210.215L196.341 214.12Z" fill="#E8BD54"/>
<path opacity="0.14" fill-rule="evenodd" clip-rule="evenodd" d="M196.341 214.12L197.443 231.466C198.008 240.02 212.575 246.076 230.099 244.987C247.596 243.898 261.33 236.115 260.793 227.561L259.691 210.215L196.341 214.12Z" fill="#334F70"/>
<path fill-rule="evenodd" clip-rule="evenodd" d="M259.691 210.215C260.228 218.768 246.494 226.578 228.997 227.641C211.5 228.73 196.879 222.673 196.341 214.119C195.804 205.566 209.538 197.783 227.035 196.694C244.532 195.604 259.126 201.661 259.691 210.215Z" fill="#E8BD54"/>
<path d="M258.105 205.912C257.326 204.796 256.304 203.76 255.014 202.777C251.251 203.282 246.548 204.318 242.006 205.301C234.292 206.921 225.369 208.94 218.031 210.8C211.043 212.579 201.663 214.598 197.013 216.883C197.47 217.919 198.142 218.902 199.029 219.831C211.366 218.902 231.712 213.456 247.946 208.86C251.01 207.984 255.122 207.107 258.105 205.912Z" fill="white"/>
<path fill-rule="evenodd" clip-rule="evenodd" d="M102.433 259.305C100.713 258.057 96.7616 255.56 94.2082 253.222C86.4139 246.077 80.6084 233.193 92.4881 226.685C96.8153 224.321 103.857 224.613 109.018 226.339C116.167 228.757 126.73 235.026 135.492 241.295C144.388 247.67 155.703 256.091 158.552 262.626C161.455 269.347 159.6 278.963 150.543 282.735C142.318 286.162 133.261 279.946 123.236 273.65C115.898 269.054 109.501 264.379 102.433 259.305Z" fill="#334F70"/>
<path d="M94.2083 253.222C96.7616 255.586 100.712 258.083 102.433 259.305C106.142 261.962 109.689 264.538 113.264 267.035C112.592 256.569 115.253 242.889 132.401 239.143C124.337 233.644 115.36 228.491 109.018 226.366C103.857 224.639 96.8153 224.347 92.4881 226.711C80.6085 233.193 86.4408 246.076 94.2083 253.222Z" fill="#1372C9"/>
<path fill-rule="evenodd" clip-rule="evenodd" d="M123.693 265.495C122.295 262.68 117.78 259.811 113.157 257.287C111.168 256.198 107.969 254.498 106.76 256.118C105.335 258.084 108.695 260.608 109.904 261.484C113.721 264.3 118.881 266.956 122.053 267.594C122.779 267.408 123.558 266.345 123.693 265.495Z" fill="white"/>
<path fill-rule="evenodd" clip-rule="evenodd" d="M115.898 253.01C119.634 249.531 110.63 242.89 108.48 246.502C107.539 248.07 110.684 252.904 113.318 253.728C114.286 254.046 115.253 253.621 115.898 253.01Z" fill="white"/>
<path d="M188.036 120.88C184.892 128.929 182.231 137.164 181.129 146.859C180.027 156.529 183.494 164.099 190.025 166.145C197.255 168.403 203.894 162.187 207.818 157.352C213.085 150.817 216.983 141.467 220.235 132.143C211.661 117.825 196.959 118.675 188.036 120.88Z" fill="#FF8C9B"/>
<path d="M215.021 81.8844C213.919 82.0172 211.688 82.3891 210.559 82.8938C201.717 87.0644 196.072 101.462 192.068 110.972C190.67 114.292 189.299 117.56 188.009 120.854C196.932 118.649 211.634 117.799 220.235 132.117C221.552 128.398 222.734 124.679 223.89 121.119C226.067 114.399 228.836 107.386 229.373 100.479C230.341 88.2863 224.885 80.6093 215.021 81.8844Z" fill="#25364F"/>
<path fill-rule="evenodd" clip-rule="evenodd" d="M207.71 96.5471C207.791 100.027 204.807 105.127 201.555 109.962C200.157 112.034 197.873 115.328 195.857 114.318C193.438 113.096 195.454 108.926 196.18 107.438C198.464 102.737 202.2 97.5034 205.022 95.2986C205.829 95.1127 207.146 95.7768 207.71 96.5471Z" fill="white"/>
<path fill-rule="evenodd" clip-rule="evenodd" d="M206.473 112.778C211.956 114.345 206.5 125.422 202.523 122.925C200.803 121.836 201.394 115.514 203.571 113.362C204.323 112.592 205.506 112.486 206.473 112.778Z" fill="white"/>
<path fill-rule="evenodd" clip-rule="evenodd" d="M187.929 138.916C189.917 139.261 190.563 142.104 190.079 144.946C189.702 147.23 187.955 151.481 185.536 150.232C184.461 149.701 183.655 147.496 183.978 145.105C184.381 142.316 185.375 138.464 187.929 138.916Z" fill="white"/>
<path fill-rule="evenodd" clip-rule="evenodd" d="M492.661 218.024L476.83 225.621C469.036 229.366 468.929 245.013 476.562 260.606C484.222 276.199 496.72 285.788 504.541 282.069L520.371 274.472L492.661 218.024Z" fill="#E8BD54"/>
<path opacity="0.14" fill-rule="evenodd" clip-rule="evenodd" d="M492.661 218.024L476.83 225.621C469.036 229.366 468.929 245.013 476.562 260.606C484.222 276.199 496.72 285.788 504.541 282.069L520.371 274.472L492.661 218.024Z" fill="#334F70"/>
<path fill-rule="evenodd" clip-rule="evenodd" d="M520.371 274.445C512.577 278.191 500.052 268.575 492.392 253.008C484.732 237.415 484.867 221.769 492.661 218.024C500.455 214.278 512.98 223.894 520.64 239.461C528.273 255.054 528.166 270.726 520.371 274.445Z" fill="#E8BD54"/>
<path d="M523.785 271.417C524.537 270.275 525.128 268.92 525.532 267.406C523.623 264.165 520.882 260.26 518.248 256.462C513.786 250.033 508.545 242.622 504.003 236.619C499.676 230.907 494.22 223.097 490.35 219.697C489.543 220.521 488.898 221.504 488.361 222.646C493.924 233.59 506.745 250.113 517.2 263.183C519.162 265.706 521.527 269.106 523.785 271.417Z" fill="white"/>
<path fill-rule="evenodd" clip-rule="evenodd" d="M414.664 437.176L424.581 451.547C429.473 458.613 445.142 456.435 459.629 446.686C474.116 436.937 481.883 423.283 477.018 416.217L467.101 401.846L414.664 437.176Z" fill="#E8BD54"/>
<path opacity="0.14" fill-rule="evenodd" clip-rule="evenodd" d="M414.664 437.176L424.581 451.547C429.473 458.613 445.142 456.462 459.629 446.686C474.116 436.937 481.883 423.283 477.018 416.217L467.101 401.846L414.664 437.176Z" fill="#334F70"/>
<path fill-rule="evenodd" clip-rule="evenodd" d="M467.101 401.82C471.966 408.886 464.198 422.54 449.711 432.316C435.225 442.065 419.528 444.243 414.664 437.177C409.772 430.111 417.566 416.457 432.026 406.708C446.513 396.932 462.209 394.754 467.101 401.82Z" fill="#E8BD54"/>
<path d="M463.526 398.951C462.29 398.366 460.838 397.995 459.252 397.809C456.269 400.146 452.775 403.387 449.362 406.522C443.583 411.834 436.945 418.05 431.596 423.363C426.516 428.41 419.501 434.918 416.679 439.195C417.62 439.859 418.695 440.364 419.931 440.709C430.064 433.67 444.739 418.714 456.296 406.575C458.5 404.29 461.564 401.474 463.526 398.951Z" fill="white"/>
<path fill-rule="evenodd" clip-rule="evenodd" d="M421.034 357.061C419.314 358.282 415.336 360.779 412.783 363.091C404.962 370.21 399.049 383.014 410.901 389.601C415.202 391.992 422.27 391.753 427.431 390.026C434.607 387.662 445.196 381.446 454.012 375.23C462.962 368.935 474.331 360.567 477.18 354.032C480.11 347.338 478.336 337.695 469.305 333.87C461.108 330.39 451.996 336.553 441.944 342.796C434.553 347.391 428.13 352.013 421.034 357.061Z" fill="#334F70"/>
<path d="M412.782 363.09C415.336 360.752 419.314 358.282 421.034 357.06C424.77 354.404 428.317 351.88 431.919 349.41C431.193 359.876 433.773 373.556 450.867 377.408C442.777 382.854 433.747 387.954 427.404 390.052C422.243 391.753 415.201 392.018 410.874 389.627C399.048 383.013 404.961 370.209 412.782 363.09Z" fill="#1372C9"/>
<path fill-rule="evenodd" clip-rule="evenodd" d="M442.321 351.003C440.896 353.819 436.354 356.635 431.731 359.158C429.742 360.221 426.517 361.921 425.334 360.274C423.91 358.308 427.296 355.811 428.506 354.935C432.322 352.119 437.536 349.516 440.708 348.905C441.434 349.064 442.213 350.153 442.321 351.003Z" fill="white"/>
<path fill-rule="evenodd" clip-rule="evenodd" d="M434.472 363.435C438.181 366.941 429.151 373.529 427 369.89C426.087 368.323 429.231 363.515 431.892 362.691C432.833 362.399 433.827 362.824 434.472 363.435Z" fill="white"/>
<path d="M375.047 432.235C382.33 437.017 389.292 442.223 395.877 449.502C402.408 456.78 404.02 464.936 399.881 470.328C395.312 476.278 386.255 475.03 380.207 473.303C372.09 470.992 363.436 465.573 355.319 459.835C353.975 443.206 366.473 435.529 375.047 432.235Z" fill="#FF8C9B"/>
<path d="M330.243 415.819C331.237 415.315 333.253 414.332 334.463 414.119C344.111 412.472 357.147 420.999 365.962 426.498C369.026 428.411 372.064 430.297 375.047 432.262C366.473 435.556 354.002 443.26 355.319 459.862C352.067 457.551 348.922 455.214 345.912 452.982C340.214 448.759 333.844 444.615 329.383 439.275C321.481 429.765 321.427 420.388 330.243 415.819Z" fill="#25364F"/>
<path fill-rule="evenodd" clip-rule="evenodd" d="M344.783 423.602C346.745 426.498 352.174 428.942 357.631 431.04C359.969 431.917 363.785 433.325 364.834 431.332C366.097 428.942 362.011 426.71 360.56 425.913C355.937 423.39 349.836 421.238 346.235 421.052C345.455 421.344 344.783 422.646 344.783 423.602Z" fill="white"/>
<path fill-rule="evenodd" clip-rule="evenodd" d="M355.265 436.14C351.718 440.55 362.63 446.473 364.431 442.17C365.21 440.284 361.017 435.476 357.98 434.945C356.905 434.759 355.884 435.37 355.265 436.14Z" fill="white"/>
<path fill-rule="evenodd" clip-rule="evenodd" d="M385.663 446.899C384.239 448.334 385.395 450.99 387.437 453.062C389.077 454.736 392.974 457.18 394.237 454.789C394.802 453.753 394.157 451.495 392.517 449.715C390.582 447.643 387.491 445.067 385.663 446.899Z" fill="white"/>
<path fill-rule="evenodd" clip-rule="evenodd" d="M123.961 108.979C134.201 113.309 137.911 121.385 133.126 131.585C127.912 142.689 116.785 149.516 109.286 154.218C87.3279 168.004 65.6919 175.416 41.4487 178.71C36.2077 179.427 31.1817 180.41 26.8545 179.214C21.8016 177.833 17.9851 173.955 16.3456 171.537C11.7227 164.684 13.6847 154.457 21.4791 144.283C24.0862 140.883 28.279 137.828 32.2568 134.852C42.3895 127.308 55.613 120.481 66.3907 116.258C81.63 110.307 99.3688 104.516 116.14 106.774C118.532 107.093 121.166 107.784 123.961 108.979Z" fill="#C1D5E8"/>
<path d="M145.678 164.684C148.232 159.291 148.339 154.483 146.404 150.525H146.431L134.739 119.791C135.653 123.244 135.169 127.228 133.127 131.585C127.912 142.689 116.785 149.516 109.287 154.217C87.328 168.004 65.692 175.416 41.4488 178.709C36.2078 179.427 31.1818 180.41 26.8546 179.214C21.8017 177.833 17.9851 173.955 16.3456 171.537C15.7543 170.687 15.2974 169.784 14.9211 168.828L26.989 200.306C27.3921 201.847 28.0372 203.308 28.9241 204.609C30.5636 207.053 34.407 210.932 39.4331 212.313C43.7871 213.508 48.8132 212.499 54.0542 211.782C78.2973 208.488 99.9334 201.076 121.892 187.29C129.364 182.614 140.464 175.787 145.678 164.684Z" fill="#334F70"/>
<path d="M145.678 164.684C145.92 164.206 146.108 163.728 146.296 163.25C142.157 153.766 138.448 142.397 132.078 133.578C130.815 135.836 129.31 137.881 127.67 139.794C127.858 140.192 128.02 140.564 128.181 140.962C131.729 149.197 135.438 156.582 140.034 164.312C140.921 165.8 141.861 167.659 142.99 169.359C144.012 167.872 144.925 166.331 145.678 164.684Z" fill="#C1D5E8"/>
<path d="M118.075 148.4C116.704 149.41 115.334 150.34 114.017 151.216C114.823 152.146 115.79 153.076 116.436 154.138C119.688 159.292 121.945 165.614 125.171 171.219C126.756 173.982 128.88 176.797 130.868 179.533C131.137 179.905 131.406 180.33 131.702 180.755C133.207 179.64 134.685 178.418 136.136 177.116C136.002 176.877 135.841 176.611 135.733 176.372C131.352 168.164 125.009 155.52 118.075 148.4Z" fill="#C1D5E8"/>
<path d="M116.113 175.15C112.968 168.137 109.851 160.619 105.765 156.342C104.395 157.166 102.997 157.963 101.626 158.76C101.761 161.522 103.911 164.072 105.013 166.623C108.077 173.529 110.146 180.223 113.748 186.758C114.42 187.953 115.146 189.441 116.032 190.822C117.86 189.76 119.688 188.697 121.515 187.555C121.139 186.678 120.736 185.775 120.413 184.925C119.123 181.737 117.511 178.311 116.113 175.15Z" fill="#C1D5E8"/>
<path d="M102.46 190.611C99.6377 184.581 97.1919 178.418 94.316 172.813C92.9722 170.183 91.4671 166.809 89.4244 165.003C87.8924 165.72 86.3604 166.384 84.8016 167.048C84.7478 169.386 85.8498 171.856 86.7098 173.982C89.4782 180.862 92.7034 186.626 96.7081 192.842C97.81 194.569 98.8582 197.198 100.551 198.792C102.11 198.102 103.669 197.384 105.228 196.614C104.798 194.648 103.374 192.576 102.46 190.611Z" fill="#C1D5E8"/>
<path d="M80.7162 188.83C78.1091 183.066 75.6364 176.452 72.3843 171.723C70.476 172.361 68.5409 172.945 66.5789 173.503C67.0626 175.655 67.8958 177.913 68.3796 179.294C71.2554 187.662 73.6744 193.771 77.1146 200.89C77.9747 202.644 78.8616 204.609 79.9905 206.336C82.275 205.672 84.5327 204.928 86.7903 204.184C86.199 202.564 85.3121 200.917 84.7208 199.376C83.3501 195.95 82.2481 192.231 80.7162 188.83Z" fill="#C1D5E8"/>
<path d="M59.3756 184.953C58.0318 182.11 56.6073 178.285 54.5378 176.452C53.1939 176.744 51.8232 177.01 50.4525 177.249C50.345 180.224 51.6082 183.306 52.6564 186.254C55.2097 193.294 58.2737 199.643 61.7139 206.204C62.3321 207.373 62.9503 208.86 63.7566 210.215C65.6649 209.87 67.5731 209.471 69.4545 209.046C68.8632 207.479 67.9763 205.885 67.385 204.344C64.8854 197.703 62.4396 191.541 59.3756 184.953Z" fill="#C1D5E8"/>
<path d="M45.3995 206.257C42.8462 199.642 40.4004 193.134 37.9008 186.653C37.0139 184.315 36.1 181.632 34.8906 179.56C33.1436 179.746 31.4234 179.826 29.8108 179.693C30.1602 181.791 31.6653 184.129 32.391 186.121C34.9174 193.134 36.8526 199.722 39.7822 206.522C40.6423 208.515 41.4217 210.932 42.7387 212.845C44.3244 212.924 45.9908 212.845 47.6841 212.659C47.5497 210.64 46.179 208.276 45.3995 206.257Z" fill="#C1D5E8"/>
<path fill-rule="evenodd" clip-rule="evenodd" d="M26.1286 167.128C26.8005 171.272 16.2917 168.085 19.1675 165.056C20.6457 163.516 24.6504 165.694 26.1286 167.128Z" fill="white"/>
<path fill-rule="evenodd" clip-rule="evenodd" d="M30.8589 172.761C30.16 172.203 29.0312 170.662 30.2944 169.387C31.9339 167.687 36.5299 168.749 38.4651 168.829C40.8034 168.935 45.2113 168.059 46.4208 170.37C48.1409 173.664 41.3679 173.876 39.0295 173.85C37.7932 173.85 36.5837 173.717 35.5355 173.637C33.7078 173.584 32.2027 173.85 30.8589 172.761Z" fill="white"/>
<path fill-rule="evenodd" clip-rule="evenodd" d="M100.121 112.805C102.648 110.945 115.334 112.566 114.527 116.789C113.855 120.243 102.701 118.569 100.309 115.753C99.6911 115.036 99.5299 114.399 100.121 112.805Z" fill="white"/>
<path fill-rule="evenodd" clip-rule="evenodd" d="M112.512 125.078C112.001 120.934 118.317 121.996 118.559 124.467C118.908 127.814 112.968 128.744 112.512 125.078Z" fill="white"/>
<path fill-rule="evenodd" clip-rule="evenodd" d="M120.091 116.948C120.387 112.99 129.982 114.69 129.229 118.25C128.907 119.737 127.805 119.95 125.843 120.083C122.913 120.269 119.876 119.711 120.091 116.948Z" fill="white"/>
<path fill-rule="evenodd" clip-rule="evenodd" d="M193.036 296.043C197.04 302.259 199.54 308.077 205.695 310.919C214.269 314.904 228.89 312.221 236.845 316.684C242.678 319.951 247.112 328.345 251.225 335.279C255.552 342.584 259.583 349.623 263.212 356.238C271.14 370.795 279.338 384.98 287.159 398.182C291.567 405.593 294.685 413.005 298.125 420.177C305.194 434.947 311.375 449.583 317.96 466.186C321.186 474.288 326.292 487.782 322.744 497.292C319.062 507.174 305.597 513.603 295.357 518.597C266.652 532.623 241.871 544.762 212.172 557.486C204.378 560.833 194.514 564.924 185.134 561.205C181.586 559.797 176.452 555.096 173.496 551.403C169.169 546.011 165.836 539.024 162.208 532.463C148.017 506.829 135.035 480.345 120.441 453.302C113.345 440.153 107.378 426.951 100.928 412.367C97.2995 404.159 94.0205 395.499 95.7943 386.308C97.0576 379.879 101.197 374.301 104.691 369.387C108.131 364.525 112.861 358.814 113.238 352.12C113.614 345.612 110.819 341.096 109.125 335.889C129.176 325.503 150.247 315.966 171.077 305.766C178.28 302.366 186.209 298.301 193.036 296.043Z" fill="#1372C9"/>
<path d="M221.794 506.138C229.696 502.419 238.082 498.275 243.699 492.617C245.5 490.811 248.053 487.278 248.832 485.179C251.466 478.246 248.752 469.825 246.44 463.184C244.666 458.111 242.409 453.17 240.635 448.973C232.061 428.943 224.697 413.563 215.989 394.171C211.339 383.811 204.861 370.635 190.993 370.821C181.183 370.954 171.991 376.161 163.955 379.269C155.461 382.563 147.21 385.83 138.636 389.761C127.321 394.968 113.856 400.998 103.374 408.037C102.352 408.728 101.197 409.472 100.041 410.295C100.337 411.013 100.659 411.73 100.955 412.447C107.405 427.031 113.372 440.233 120.467 453.382C135.062 480.424 148.043 506.909 162.234 532.543C162.503 533.021 162.772 533.526 163.041 534.031C174.652 528.558 187.149 521.811 197.497 516.976C205.883 513.045 213.597 509.99 221.794 506.138Z" fill="#C1D5E8"/>
<path fill-rule="evenodd" clip-rule="evenodd" d="M162.692 418.265C167.019 417.123 174.302 412.714 180.807 412.342C185.43 412.076 191.262 425.783 190.267 432.105C189.73 435.559 179.302 438.72 174.222 442.279C176.103 447.061 181.452 455.349 178.737 457.74C174.947 461.113 167.637 464.46 164.331 465.071C161.025 465.656 156.994 455.588 153.634 450.833C148.715 453.41 142.131 458.085 137.158 455.721C134.471 454.446 129.686 445.679 128.934 441.881C127.509 434.735 136.89 431.282 142.104 428.041C140.84 423.738 137.857 421.214 138.395 416.247C138.905 411.678 146.485 406.604 151.968 406.073C159.413 405.382 160.246 413.218 162.692 418.265Z" fill="white"/>
<path fill-rule="evenodd" clip-rule="evenodd" d="M209.35 460.474C197.954 465.495 181.317 473.597 169.411 479.494C166.401 480.982 161.966 483.027 159.332 485.258C161.079 488.34 162.772 491.474 164.465 494.556C169.061 494.343 175.404 489.402 178.791 487.596C189.327 481.991 199.217 477.528 208.624 472.561C210.318 471.658 212.28 470.781 214.054 469.692C212.468 466.637 210.909 463.556 209.35 460.474Z" fill="#334F70"/>
<path fill-rule="evenodd" clip-rule="evenodd" d="M222.87 485.47C221.606 483.425 220.424 481.379 219.268 479.307C214.672 480.476 210.345 484.115 206.878 485.868C198.761 489.986 186.854 495.83 178.791 499.761C176.56 500.851 172.771 502.285 169.895 503.932C169.975 504.065 170.056 504.198 170.137 504.33C171.642 506.748 173.147 509.165 174.679 511.582C175.593 511.104 176.56 510.626 177.635 510.175C191.423 504.57 201.798 498.38 214.511 491.659C216.688 490.491 220.746 488.737 223.622 486.612C223.353 486.24 223.111 485.842 222.87 485.47Z" fill="#334F70"/>
<path fill-rule="evenodd" clip-rule="evenodd" d="M263.023 386.705C258.508 383.491 254.906 374.911 251.869 366.304C250.552 362.612 248.563 356.608 251.762 355.094C255.605 353.261 258.992 359.716 260.174 362.054C263.964 369.386 267.055 379.002 267.162 384.58C266.652 385.749 264.528 386.759 263.023 386.705Z" fill="white"/>
<path fill-rule="evenodd" clip-rule="evenodd" d="M233.351 356.741C226.148 362.028 217.278 344.734 224.239 342.158C227.277 341.042 234.721 347.816 235.393 352.571C235.608 354.244 234.587 355.812 233.351 356.741Z" fill="white"/>
<path fill-rule="evenodd" clip-rule="evenodd" d="M231.469 333.312C229.131 335.437 224.938 333.525 221.74 330.257C219.16 327.601 215.478 321.385 219.321 319.579C221.014 318.755 224.589 319.844 227.33 322.527C230.529 325.662 234.48 330.576 231.469 333.312Z" fill="white"/>
<path fill-rule="evenodd" clip-rule="evenodd" d="M195.454 544.975C189.514 548.375 204.324 558.178 205.211 551.537C205.668 548.057 198.76 545.321 195.454 544.975Z" fill="white"/>
<path fill-rule="evenodd" clip-rule="evenodd" d="M183.44 544.868C184.865 545.16 187.929 544.974 188.305 542.106C188.789 538.334 182.715 533.711 180.645 531.427C178.146 528.638 174.678 522.289 170.539 523.166C164.626 524.414 171.265 533.021 173.684 535.89C174.974 537.404 176.372 538.785 177.527 540.034C179.489 542.159 180.699 544.31 183.44 544.868Z" fill="white"/>
<path fill-rule="evenodd" clip-rule="evenodd" d="M193.977 276.784C192.176 273.517 190.993 270.754 188.763 267.354C186.693 264.166 183.091 259.89 179.705 258.429C175.324 256.542 170.029 258.163 165.03 260.182C155.408 264.06 122.537 281.406 122.511 281.433C113.829 285.418 105.686 289.163 97.488 293.891C92.8383 296.548 88.6455 299.603 87.1135 304.278C84.3452 312.725 90.9569 324.174 92.4889 327.601C95.5798 334.587 99.5307 343.965 110.712 342.743C115.119 342.265 119.877 339.847 124.123 337.802C131.514 334.216 176.56 311.424 183.898 307.864C188.117 305.819 192.955 303.587 196.046 300.426C203.841 292.43 197.686 283.452 193.977 276.784Z" fill="#0F4373"/>
<path d="M92.8916 310.76C104.341 304.969 115.361 299.948 126.757 294.37C129.767 292.909 133.583 290.73 137.185 288.552C138.421 287.808 143.367 285.816 142.13 283.691C141.593 282.761 139.577 282.894 138.179 283.239C135.841 283.797 136.325 283.956 134.175 284.727C120.682 289.482 106.921 295.804 93.9935 302.206C91.6284 303.375 89.1557 304.544 86.7099 305.819C86.2261 308.289 86.4142 310.972 86.9786 313.602C89.2094 312.539 91.1983 311.61 92.8916 310.76Z" fill="#1372C9"/>
<path d="M175.619 264.167C170.217 266.85 164.25 269.479 159.466 273.358C158.579 274.075 157.826 275.084 157.746 275.244C157.289 276.12 157.02 277.156 157.8 278.006C159.385 279.706 163.551 277.794 166.078 276.678C169.249 275.27 172.152 273.916 174.463 272.747C179.006 270.436 183.467 268.284 187.929 266.159C186.585 264.273 184.838 262.201 182.957 260.607C180.511 261.776 178.038 262.971 175.619 264.167Z" fill="#1372C9"/>
<path d="M113.13 315.382C115.845 313.947 122.322 310.866 120.468 308.316C119.016 306.323 114.366 308.528 111.356 309.777C104.933 312.486 98.2939 315.966 92.569 318.888C91.6552 319.34 90.4457 319.871 89.1825 320.456C89.9619 322.342 90.7414 324.015 91.4133 325.37C98.7777 322.421 105.712 319.26 113.13 315.382Z" fill="#1372C9"/>
<path d="M188.842 285.418C183.037 288.127 176.183 291.209 170.109 294.609C167.26 296.203 162.664 298.514 163.39 300.852C164.304 303.88 170.727 300.666 173.523 299.391C182.231 295.459 189.756 291.448 197.578 286.746C197.954 286.534 198.33 286.294 198.706 286.109C198.169 284.621 197.497 283.16 196.744 281.752C194.057 282.522 190.912 284.462 188.842 285.418Z" fill="#1372C9"/>
<path d="M144.657 314.053C145.92 313.362 151.564 310.308 150.624 308.236C149.333 305.393 144.603 307.97 143.205 308.448C135.223 311.29 127.939 314.93 120.602 318.569C112.942 322.368 105.524 325.847 97.9174 330.629C97.0036 331.213 95.9016 331.877 94.7997 332.595C95.8748 334.693 97.138 336.712 98.7237 338.439C101.626 336.872 104.475 335.198 107.351 333.578C120.01 326.485 131.756 321.199 144.657 314.053Z" fill="#1372C9"/>
<path d="M146.995 292.51C142.964 294.45 136.701 296.681 138.475 299.736C143.125 300.347 177.124 283.399 193.089 275.138C192.283 273.624 191.584 272.189 190.751 270.675C178.226 276.811 149.387 291.368 146.995 292.51Z" fill="#1372C9"/>
</svg>
